<?xml version="1.0" encoding="UTF-8"?>
<svg width="465px" height="355px" viewBox="0 0 465 355" version="1.1" xmlns="http://www.w3.org/2000/svg" xmlns:xlink="http://www.w3.org/1999/xlink">
    <!-- Generator: Sketch 52.5 (67469) - http://www.bohemiancoding.com/sketch -->
    <title>Combined Shape</title>
    <desc>Created with Sketch.</desc>
    <g id="Symbols,-Styles-&amp;-Typography" stroke="none" stroke-width="1" fill="none" fill-rule="evenodd">
        <g id="logo/white" fill="#FFFFFF">
            <path d="M444.876694,189.762858 C444.876694,184.355858 449.260694,179.972858 454.666694,179.972858 C460.073694,179.972858 464.456694,184.355858 464.456694,189.762858 C464.456694,195.169858 460.073694,199.552858 454.666694,199.552858 C449.260694,199.552858 444.876694,195.169858 444.876694,189.762858 Z M153.753094,95.3067584 C175.403094,118.181758 181.133094,149.458758 172.867094,179.417758 C162.355094,217.514758 130.210094,243.101758 94.2370945,256.022758 C81.8950945,260.454758 68.7470945,263.670758 55.6180945,264.438758 C51.9980945,264.651758 48.0080945,264.726758 44.5210945,263.619758 C38.5750945,261.731758 37.1550945,256.791758 37.3080945,251.188758 C38.6900945,200.786758 39.9310945,150.357758 39.2580945,99.9347584 C39.1110945,88.9087584 56.2120945,88.9397584 56.3580945,99.9347584 C56.4540945,107.041758 56.5080945,114.149758 56.5260945,121.256758 C56.5970945,149.275758 56.1930945,177.294758 55.5860945,205.306758 C55.3590945,215.758758 55.1000945,226.208758 54.8160945,236.659758 C54.7190945,240.186758 54.7800945,243.789758 54.6920945,247.366758 C55.0770945,247.351758 55.4610945,247.349758 55.8460945,247.325758 C56.9890945,247.254758 58.1310945,247.153758 59.2700945,247.033758 C59.8690945,246.970758 60.4650945,246.892758 61.0640945,246.826758 C61.0780945,246.824758 61.0870945,246.822758 61.1010945,246.820758 C67.0860945,245.854758 72.9920945,244.635758 78.8330945,242.998758 C82.2310945,242.046758 85.5960945,240.981758 88.9230945,239.806758 C92.5540945,238.524758 95.8140945,237.227758 98.1920945,236.172758 C129.822094,222.134758 155.397094,196.918758 159.092094,160.933758 C159.473094,157.220758 159.705094,153.475758 159.607094,149.741758 C159.573094,148.469758 159.502094,147.199758 159.396094,145.931758 C159.352094,145.409758 159.121094,143.665758 159.076094,143.216758 C158.206094,138.036758 156.832094,133.068758 155.028094,128.124758 C154.464094,126.577758 154.802094,127.518758 154.783094,127.474758 C154.475094,126.772758 154.162094,126.074758 153.836094,125.381758 C153.217094,124.070758 152.560094,122.778758 151.866094,121.506758 C150.370094,118.763758 148.702094,116.114758 146.875094,113.578758 C146.704094,113.341758 146.048094,112.473758 145.807094,112.148758 C145.547094,111.835758 144.858094,110.989758 144.647094,110.738758 C143.602094,109.499758 142.518094,108.294758 141.399094,107.123758 C138.961094,104.572758 136.350094,102.198758 133.608094,99.9767584 C132.620094,99.1757584 133.820094,100.088758 132.413094,99.0617584 C131.623094,98.4847584 130.829094,97.9137584 130.022094,97.3607584 C128.481094,96.3017584 126.905094,95.2937584 125.301094,94.3317584 C121.761094,92.2077584 118.082094,90.3107584 114.305094,88.6447584 C106.927094,85.3897584 96.8400945,82.5727584 88.0410945,80.9087584 C62.7140945,76.1177584 36.1160945,77.7367584 10.7810945,81.5557584 C6.19809447,82.2467584 1.60809447,80.4727584 0.26409447,75.5837584 C-0.85490553,71.5117584 1.66609447,65.7547584 6.23509447,65.0657584 C14.6450945,63.7987584 23.0840945,62.7127584 31.5590945,61.9977584 C73.4210945,58.4627584 123.117094,62.9357584 153.753094,95.3067584 Z M333.321994,31.2604584 C333.606994,31.4904584 334.527994,32.0314584 333.321994,31.2604584 Z M334.095994,27.7654584 C334.627994,27.2394584 334.361994,27.4264584 334.095994,27.7654584 Z M249.691994,203.864458 C249.443994,203.615458 249.509994,203.683458 249.691994,203.864458 Z M436.655994,129.367458 C437.285994,128.286458 437.764994,127.117458 438.367994,126.027458 C442.031994,115.884458 458.325994,120.367458 454.787994,130.746458 C452.063994,138.737458 446.559994,146.098458 440.028994,151.345458 C430.246994,159.202458 418.730994,162.384458 406.891994,162.450458 C424.394994,193.161458 428.839994,231.853458 425.059994,266.436458 C423.288994,282.647458 419.952994,298.578458 413.287994,313.520458 C409.426994,322.175458 403.979994,331.211458 395.923994,336.574458 C388.955994,341.213458 378.923994,341.649458 375.738994,332.433458 C373.563994,326.142458 373.676994,318.677458 373.412994,312.093458 C372.350994,285.709458 373.186994,259.211458 373.805994,232.826458 C374.225994,214.956458 374.736994,197.089458 375.218994,179.221458 C367.471994,181.876458 359.245994,182.902458 350.967994,182.712458 C357.273994,196.084458 359.724994,211.191458 361.287994,225.745458 C362.961994,241.332458 363.400994,257.319458 361.845994,272.935458 C359.969994,291.775458 355.275994,310.275458 346.877994,327.295458 C342.381994,336.404458 336.004994,347.965458 326.451994,352.659458 C303.822994,363.778458 308.115994,317.102458 308.192994,306.912458 C308.442994,274.095458 309.858994,241.293458 310.746994,208.489458 C308.053994,209.346458 305.195994,209.757458 302.165994,209.566458 C291.027994,208.866458 284.320994,199.906458 280.508994,190.346458 C278.996994,195.094458 277.265994,199.765458 275.230994,204.311458 C269.782994,216.478458 260.200994,226.809458 245.809994,221.313458 C228.482994,214.696458 230.620994,194.017458 233.734994,179.302458 C235.047994,173.095458 236.726994,166.977458 238.406994,160.861458 C234.410994,163.548458 230.113994,165.784458 225.586994,167.445458 C224.622994,167.798458 223.619994,168.134458 222.588994,168.450458 C220.597994,179.747458 216.214994,190.878458 210.729994,200.440458 C201.734994,216.124458 187.267994,230.038458 168.803994,232.928458 C164.223994,233.644458 159.624994,231.825458 158.285994,226.956458 C157.161994,222.866458 159.691994,217.153458 164.257994,216.439458 C179.022994,214.128458 189.164994,204.002458 196.441994,190.965458 C199.862994,184.837458 202.660994,177.722458 204.455994,170.708458 C198.452994,170.186458 192.829994,168.103458 188.802994,163.517458 C179.845994,153.314458 182.949994,136.882458 195.312994,131.090458 C202.736994,127.612458 211.388994,127.373458 217.316994,133.682458 C221.362994,137.989458 222.913994,144.000458 223.475994,149.798458 C225.670994,148.780458 227.801994,147.585458 229.843994,146.162458 C232.128994,144.571458 234.750994,142.140458 236.909994,139.799458 C237.804994,138.828458 238.668994,137.824458 239.490994,136.791458 C239.433994,136.826458 240.850994,134.900458 241.059994,134.591458 C242.228994,132.864458 243.316994,131.076458 244.570994,128.877458 C248.140994,120.314458 261.033994,120.908458 261.365994,131.149458 C261.924994,148.399458 254.269994,165.623458 250.577994,182.225458 C249.812994,185.666458 249.044994,189.649458 248.799994,192.360458 C248.646994,194.059458 248.544994,195.765458 248.567994,197.471458 C248.577994,198.124458 248.881994,200.836458 248.777994,200.553458 C248.953994,201.285458 249.328994,202.640458 249.489994,203.238458 C249.616994,203.531458 249.911994,204.058458 250.760994,204.834458 C250.958994,204.966458 251.487994,205.219458 251.672994,205.320458 C252.312994,205.528458 253.216994,205.794458 254.222994,205.741458 C254.807994,205.189458 255.364994,204.620458 255.915994,204.002458 C256.287994,203.450458 256.662994,202.904458 257.014994,202.339458 C260.348994,197.002458 261.339994,193.911458 263.308994,187.944458 C267.601994,174.939458 270.355994,161.411458 272.677994,147.932458 C273.440994,143.508458 274.131994,139.071458 274.768994,134.626458 C275.010994,131.769458 275.364994,128.932458 275.907994,126.148458 C277.745994,116.723458 293.812994,118.898458 292.702994,128.421458 C292.512994,130.043458 292.294994,131.661458 292.085994,133.281458 C291.971994,134.548458 291.860994,135.813458 291.783994,137.083458 C291.199994,146.751458 291.374994,156.527458 292.413994,166.157458 C292.841994,170.123458 293.661994,175.049458 295.002994,179.862458 C296.324994,184.603458 296.767994,186.311458 299.517994,190.154458 C298.822994,189.152458 300.582994,191.252458 301.108994,191.765458 C301.352994,191.929458 301.629994,192.093458 301.941994,192.344458 C302.087994,192.364458 302.293994,192.394458 303.467994,192.532458 C303.576994,192.531458 303.985994,192.498458 305.065994,192.323458 C305.536994,192.222458 305.991994,192.061458 306.504994,191.892458 C308.553994,190.898458 309.724994,189.982458 311.193994,188.624458 C311.863994,150.579458 311.556994,112.518458 312.813994,74.4844584 C313.316994,59.2584584 313.647994,43.7244584 316.314994,28.6854584 C317.046994,24.5594584 318.077994,19.9304584 321.057994,16.7904584 C324.931994,12.7104584 331.755994,12.4964584 336.827994,14.0924584 C349.853994,18.1894584 355.887994,33.4004584 358.826994,45.4454584 C363.165994,63.2274584 363.393994,82.2544584 361.170994,100.353458 C359.156994,116.744458 355.617994,132.948458 350.629994,148.691458 C348.874994,154.227458 346.964994,159.826458 344.789994,165.334458 C345.292994,165.384458 345.915994,165.437458 346.821994,165.512458 C356.378994,166.310458 362.627994,165.766458 371.248994,162.586458 C372.674994,162.060458 374.179994,161.334458 375.704994,160.468458 C375.835994,155.176458 375.968994,149.885458 376.084994,144.592458 C376.909994,106.512458 376.835994,68.1944584 379.932994,30.2094584 C380.568994,22.4124584 380.114994,9.87645843 386.019994,3.70245843 C392.629994,-3.20754157 403.239994,0.625458433 408.973994,6.47345843 C417.126994,14.7894584 421.047994,27.1224584 423.278994,38.2564584 C427.015994,56.9064584 426.812994,76.2114584 424.729994,95.0474584 C422.865994,111.895458 419.328994,129.871458 411.568994,145.336458 C412.771994,145.204458 413.964994,145.021458 415.140994,144.767458 C418.362994,144.072458 421.380994,143.057458 423.407994,141.954458 C425.981994,140.554458 428.009994,139.257458 429.128994,138.276458 C430.896994,136.723458 432.519994,135.064458 434.038994,133.272458 C434.136994,133.136458 434.777994,132.316458 435.272994,131.578458 C435.756994,130.856458 436.218994,130.118458 436.655994,129.367458 Z M286.000694,108.552958 C280.593694,108.552958 276.210694,104.169958 276.210694,98.7629584 C276.210694,93.3559584 280.593694,88.9729584 286.000694,88.9729584 C291.406694,88.9729584 295.790694,93.3559584 295.790694,98.7629584 C295.790694,104.169958 291.406694,108.552958 286.000694,108.552958 Z M403.610994,117.324458 C407.748994,101.065458 409.287994,84.0154584 409.082994,67.2664584 C408.922994,54.2534584 407.281994,39.0804584 402.513994,27.8884584 C401.619994,25.7874584 400.550994,23.7344584 399.342994,21.7974584 C398.951994,21.1684584 398.535994,20.5494584 398.102994,19.9444584 C398.082994,20.0814584 398.060994,20.2194584 398.040994,20.3564584 C398.121994,19.8454584 397.865994,21.6784584 397.812994,22.1344584 C397.673994,23.3284584 397.548994,24.5234584 397.431994,25.7204584 C396.126994,39.0824584 395.641994,52.5344584 395.164994,65.9474584 C394.242994,91.8624584 393.488994,117.797458 392.829994,143.737458 C392.858994,143.743458 392.886994,143.750458 392.915994,143.757458 C397.993994,135.681458 401.267994,126.533458 403.610994,117.324458 Z M409.164994,237.372458 C408.530994,221.198458 405.442994,205.057458 400.261994,189.727458 C398.131994,183.419458 395.578994,176.862458 392.173994,170.877458 C391.565994,197.384458 391.035994,223.891458 390.529994,250.383458 C390.104994,272.657458 389.414994,295.100458 390.772994,317.356458 C390.789994,317.621458 390.809994,317.886458 390.826994,318.152458 C390.970994,317.980458 391.121994,317.813458 391.262994,317.639458 C391.443994,317.385458 392.063994,316.560458 392.249994,316.284458 C407.054994,294.325458 410.184994,263.408458 409.164994,237.372458 Z M325.581994,330.019458 C341.569994,307.133458 345.937994,277.182458 345.595994,249.932458 C345.420994,235.871458 344.354994,221.711458 341.277994,207.965458 C339.927994,201.933458 338.308994,195.765458 335.632994,190.170458 C335.134994,189.129458 334.593994,188.089458 334.022994,187.076458 C333.247994,188.308458 332.453994,189.527458 331.624994,190.718458 C330.515994,192.309458 329.324994,193.906458 328.052994,195.460458 C327.844994,206.883458 327.591994,218.305458 327.249994,229.730458 C326.364994,259.176458 325.033994,288.662458 325.289994,318.127458 C325.324994,322.091458 325.398994,326.058458 325.581994,330.019458 Z M330.316994,63.9294584 C329.493994,82.5774584 329.219994,101.249458 329.007994,119.913458 C328.857994,133.195458 328.728994,146.473458 328.573994,159.749458 C339.359994,133.114458 346.020994,103.494458 345.305994,74.6894584 C344.971994,61.2674584 343.545994,46.1514584 336.233994,34.5804584 C335.061994,32.7254584 335.820994,33.8184584 334.409994,32.3014584 C334.067994,31.9324584 333.681994,31.5784584 333.278994,31.2324584 C333.251994,31.2154584 333.216994,31.1924584 333.181994,31.1684584 C332.219994,35.3394584 332.128994,37.5334584 331.682994,42.3754584 C331.022994,49.5444584 330.633994,56.7374584 330.316994,63.9294584 Z M204,152.583252 C206.04248,152.69458 207.356934,150.950665 207.356934,149.293811 C207.356934,147.636957 206.340576,145.364502 204,145.364502 C201.659424,145.364502 200.484619,147.343146 200.484619,149 C200.484619,150.656854 201.95752,152.471924 204,152.583252 Z" id="Combined-Shape"></path>
        </g>
    </g>
</svg>